<?xml version="1.0" encoding="UTF-8" standalone="no"?>
<!DOCTYPE svg PUBLIC "-//W3C//DTD SVG 1.1//EN" "http://www.w3.org/Graphics/SVG/1.1/DTD/svg11.dtd">
<svg width="100%" height="100%" viewBox="0 0 994 482" version="1.1" xmlns="http://www.w3.org/2000/svg" xmlns:xlink="http://www.w3.org/1999/xlink" xml:space="preserve" xmlns:serif="http://www.serif.com/" style="fill-rule:evenodd;clip-rule:evenodd;stroke-linejoin:round;stroke-miterlimit:2;">
    <g id="Prancheta1" transform="matrix(1,0,0,1,-1153.377756,-1034.352495)">
        <rect x="1153.378" y="1034.352" width="993.244" height="481.295" style="fill:none;"/>
        <clipPath id="_clip1">
            <rect x="1153.378" y="1034.352" width="993.244" height="481.295"/>
        </clipPath>
        <g clip-path="url(#_clip1)">
            <g transform="matrix(4.166667,0,0,4.166667,681.136076,-808.058155)">
                <path d="M166.476,473.099C177.404,473.961 177.773,473.198 178.182,472.353C195.594,436.342 239.854,429.856 265.817,468.276C267.387,470.601 272.711,467.458 276.566,466.976C308.522,462.978 318.105,491.629 319.411,495.536C320.266,498.091 340.874,499.84 349.213,518.622C368.274,561.552 276.271,549.187 269.53,548.281C266.814,547.916 249.408,557.258 224.507,557.745C182.671,558.562 174.318,541.842 157.405,545.041C127.047,550.783 116.596,536.748 114.657,531.438C107.008,510.492 137.465,499.036 140.645,497.84C146.062,495.802 138.521,477.406 166.476,473.099Z" style="fill:rgb(10,7,5);"/>
                <path d="M155.213,481.057C156.409,480.455 164.63,476.318 171.519,477.297C178.601,478.303 179.879,479.395 183.11,473.156C202.424,435.862 241.835,438.392 263.66,472.402C266.513,476.849 267.565,473.599 272.63,471.922C286.276,467.403 307.571,475.512 314.31,492.592C317.095,499.649 317.289,500.009 324.583,502.238C344.259,508.251 351.133,528.709 346.14,535.195C332.262,553.225 275.646,545.042 269.539,544.159C264.901,543.489 252.781,551.986 229.501,553.512C186.906,556.305 175.011,537.644 157.405,541.005C124.447,547.296 114.758,531.195 118.803,520.593C124.784,504.918 143.805,501.307 144.295,501.121C149.631,499.096 141.042,492.657 155.213,481.057Z" style="fill:rgb(106,57,27);"/>
                <path d="M230.444,492.489C238.229,472.461 259.556,483.589 258.997,491.548C258.468,499.072 250.198,477.561 237.868,487.91C233.722,491.389 231.106,502.293 230.444,492.489Z" style="fill:rgb(15,8,4);"/>
                <path d="M214.604,452.716C215.697,452.529 225.855,450.789 228.431,453.573C236.393,462.176 202.477,464.757 214.604,452.716Z" style="fill:rgb(148,93,54);"/>
                <path d="M154.359,484.5L155.5,483.537L156.5,482.819C157.258,482.536 164.943,479.669 166.592,483.447C170.227,491.779 144.314,500.726 154.359,484.5Z" style="fill:rgb(150,93,56);"/>
                <path d="M207.748,471.184C198.388,467.228 198.224,478.124 198.137,478.435C196.994,478.421 195.851,478.407 194.708,478.393C192.602,471.726 198.426,463.878 209.637,467.187C210.843,467.543 216.4,474.361 207.748,471.184Z" style="fill:rgb(21,11,5);"/>
                <path d="M132.13,508.5L133.186,507.5L134.5,506.888L135.5,506.722L136.5,506.57C151.721,505.529 133.98,522.149 129.926,514.323C128.695,511.946 129.933,512.021 132.13,508.5Z" style="fill:rgb(144,90,54);"/>
                <path d="M161.348,510.662C151.333,505.629 153.441,514.78 151.564,516.568C146.315,521.569 147.52,503.127 159.539,505.246C165.385,506.276 166.432,513.978 161.348,510.662Z" style="fill:rgb(17,9,4);"/>
                <path d="M267.695,514.37C271.7,524.977 262.669,514.148 260.546,514.115C255.415,514.036 247.754,524.193 251.18,515.359C252.134,512.901 255.802,510.525 258.483,510.325C264.907,509.847 266.881,513.539 267.695,514.37Z" style="fill:rgb(16,9,4);"/>
                <path d="M303.561,514.785C298.678,515.171 300.431,510.847 304.511,510.657C317.476,510.05 315.27,526.903 311.817,522.21C309.255,518.729 312.259,514.201 303.561,514.785Z" style="fill:rgb(19,12,6);"/>
                <path d="M285.347,488.332C276.485,494.106 273.706,481.807 281.464,481.181C290.551,480.447 285.706,487.789 285.347,488.332Z" style="fill:rgb(155,98,60);"/>
                <path d="M202.662,508.675C197.762,512.008 197.801,504.619 203.448,503.238C213.808,500.705 214.692,511.651 210.599,509.324C208.49,508.125 207.703,504.846 202.662,508.675Z" style="fill:rgb(12,7,4);"/>
                <path d="M207.748,471.184C206.587,478.509 205.511,478.808 198.107,479.457L198.137,478.435C198.224,478.124 198.388,467.228 207.748,471.184Z" style="fill:rgb(147,94,54);"/>
                <path d="M194.708,478.393C195.851,478.407 196.994,478.421 198.137,478.435L198.107,479.457C197.628,483.481 196.363,484.905 193.5,482.133L192.019,481.045C192.67,480.459 192.243,480.267 192.919,479.658C193.049,479.541 192.919,479.658 194.708,478.393Z" style="fill:rgb(111,62,29);"/>
                <path d="M194.334,464.639C194.504,464.701 198.682,466.23 195.411,466.627C193.982,466.801 194.552,466.106 194.334,464.639Z" style="fill:rgb(146,88,46);"/>
            </g>
        </g>
    </g>
</svg>
