<?xml version="1.0" encoding="UTF-8" standalone="no"?>
<!DOCTYPE svg PUBLIC "-//W3C//DTD SVG 1.1//EN" "http://www.w3.org/Graphics/SVG/1.1/DTD/svg11.dtd">
<svg width="100%" height="100%" viewBox="0 0 1709 1705" version="1.1" xmlns="http://www.w3.org/2000/svg" xmlns:xlink="http://www.w3.org/1999/xlink" xml:space="preserve" xmlns:serif="http://www.serif.com/" style="fill-rule:evenodd;clip-rule:evenodd;stroke-linejoin:round;stroke-miterlimit:2;">
    <g id="Prancheta1" transform="matrix(1,0,0,1,-795.748173,-422.934766)">
        <rect x="795.748" y="422.935" width="1708.504" height="1704.13" style="fill:none;"/>
        <clipPath id="_clip1">
            <rect x="795.748" y="422.935" width="1708.504" height="1704.13"/>
        </clipPath>
        <g clip-path="url(#_clip1)">
            <g transform="matrix(4.166667,0,0,4.166667,-1496.448857,53.575348)">
                <path d="M876.595,148.9C878.407,148.542 893.832,145.499 899.483,145.813C902.565,145.984 915.682,146.714 899.271,184.393C895.821,192.313 891.85,198.522 891.837,198.553C891.159,200.097 930.299,201.513 938.307,211.649C944.564,219.566 918.603,243.34 915.123,246.048C906.595,252.685 918.383,249.86 935.383,257.758C958.089,268.306 970.302,275.157 950.126,290.004C931.018,304.066 917.677,303.232 924.281,307.81C936.728,316.441 948.537,330.492 951.107,336.679C952.127,339.134 956.268,349.102 923.416,355.048C913.576,356.829 913.563,355.335 903.599,356.776C901.496,357.08 923.832,383.268 924.625,405.495C924.777,409.742 923.637,423.046 871.5,405.5C867.587,404.183 879.713,422.622 876.113,452.436C873.232,476.287 837.748,449.164 830.508,444.484C826.364,441.805 826.178,495.96 807.396,485.684C788.141,475.149 778.959,454.932 776.967,459.716C775.522,463.188 760.987,498.103 749.486,497.861C742.088,497.705 726.895,465.642 725.432,462.553C724.47,460.525 719.86,467.103 712.299,474.28C682.829,502.25 682.244,474.848 678.099,459.732C677.053,455.918 651.105,480.891 646.377,461.535C639.758,434.436 648.203,414.631 647.662,412.415C647.659,412.407 597.318,428.438 591.62,417.426C585.35,405.308 605.367,375.659 607.5,372.5C609.879,368.976 598.684,371.356 581.576,368.099C544.985,361.133 565.821,344.573 578.033,331.156C583.717,324.91 525.716,320.248 562.744,293.834C573.181,286.39 573.553,287.111 574.445,286.455C574.9,286.12 575.153,285.549 569.847,281.092C542.631,258.231 564.688,250.377 599.553,243.614C604.168,242.718 583.588,231.44 572.955,203.333C563.346,177.937 612.585,189.162 619.376,190.09C621.672,190.404 609.549,173.021 608.542,149.498C607.777,131.617 630.486,139.393 651.55,148.354C656.919,150.639 644.911,96.229 667.544,103.364C681.462,107.752 680.288,109.835 699.612,124.252C701.922,125.975 703.73,107.17 713.6,92.573C715.677,89.501 725.098,78.156 750.7,120.369C753.267,124.602 762.685,102.952 778.732,91.832C798.695,77.999 805.291,134.405 805.451,138.502C805.934,150.853 809.363,130.611 846.641,117.945C871.704,109.429 864.2,134.231 863.145,151.614C863.079,152.71 863.832,152.765 876.595,148.9Z" style="fill:rgb(16,10,5);"/>
                <path d="M757.497,198.206C761.996,198.606 781.289,198.385 803.268,210.903C884.506,257.172 849.187,380.278 763.449,385.019C637.677,391.974 620.646,204.123 757.497,198.206Z" style="fill:rgb(95,52,25);"/>
                <path d="M669.573,310.501C672.573,301.927 672.927,302.321 677.134,294.296C679.71,289.383 665.91,285.778 668.592,282.574C670.243,280.601 679.149,288.132 679.548,288.244C680.663,288.558 687.435,276.305 688.037,275.216C693.707,264.957 675.837,264.816 676.618,259.523C676.801,258.289 678.081,257.655 690.803,266.002C692.596,267.179 693.643,266.459 702.33,251.42C703.924,248.662 685.83,240.589 687.434,237.452C688.909,234.57 689.621,237.092 703.434,245.612C705.745,247.038 709.138,241.365 715.336,231.414C717.029,228.697 705.217,223.321 705.107,221.531C705.048,220.568 706.221,219.016 716.486,225.525C721.241,228.541 720.239,224.269 727.828,213.732C735.145,203.571 737.226,211.348 747.743,218.051C750.616,219.881 757.528,207.819 757.665,207.694C768.819,197.53 754.296,218.806 753.728,219.637C750.498,224.37 768.081,231.624 769.579,232.242C771.912,233.204 782.82,211.049 784.507,210.515C791.818,208.204 774.202,232.602 774.361,234.507C774.497,236.146 790.231,244.966 790.56,245.035C792.476,245.438 804.326,221.881 805.427,221.382C812.777,218.051 797.275,242.395 795.972,244.752C795.248,246.063 793.718,248.832 810.459,256.6C813.22,257.881 820.362,238.725 822.502,238.509C827.189,238.036 817.208,254.473 815.677,257.578C814.204,260.566 830.952,268.599 832.058,267.193C845.918,249.581 825.012,287.958 824.702,288.59C822.916,292.234 837.962,297.445 837.808,299.526C837.719,300.735 836.795,301.376 823.44,294.705C822.041,294.006 814.597,308.489 813.947,309.755C811.406,314.698 828.519,320.128 828.41,322.492C828.347,323.852 827.094,324.176 812.419,316.698C810.573,315.757 803.582,329.508 802.97,330.714C800.403,335.763 814.756,339.213 816.248,340.737C824.131,348.785 807.083,340.061 806.376,339.7C795.762,334.269 796.687,340.916 791.523,351.51C790.005,354.624 792.508,353.66 797.392,355.718C826.018,367.78 790.96,356.965 790.43,356.774C787.942,355.881 783.285,367.142 782.205,368.154C775.42,374.506 784.239,357.422 784.673,356.581C786.097,353.822 776.158,350.379 770.382,347.801C769.138,347.246 767.269,346.412 760.22,361.46C759.699,362.571 774.532,369.813 767.519,369.871C767.058,369.875 758.65,366.428 758.504,366.426C756.925,366.394 750.829,374.179 753.543,365.515C753.992,364.079 753.51,363.655 737.342,355.967C735.001,354.853 731.261,364.114 731.153,364.325C713.363,399.072 731.252,356.159 731.565,355.528C732.633,353.376 730.269,352.486 715.259,343.982C712.28,342.294 705.838,359.578 704.609,359.852C698.824,361.147 711.989,342.176 708.202,339.935C696.852,333.219 694.308,323.229 687.979,334.76C677.344,354.138 686.966,328.901 687.149,328.423C688.33,325.324 668.039,318.205 669.573,310.501Z" style="fill:rgb(16,9,4);"/>
                <path d="M695.209,193.645C695.753,194.987 701.761,209.792 700.122,211.068C688.255,220.313 688.545,220.338 678.204,231.124C673.6,235.927 616.416,208.934 612.378,150.507C611.672,140.294 616.289,141.976 626.41,143.96C671.68,152.831 691.818,187.763 695.209,193.645Z" style="fill:rgb(250,190,41);"/>
                <path d="M680.594,451.63C667.751,459.999 652.789,471.81 649.85,459.411C636.805,404.383 684.101,360.453 689.565,364.366C692.067,366.158 694.349,368.241 696.813,370.084C711.607,381.152 718.315,378.156 717.785,388.526C716.037,422.764 685.138,447.93 680.594,451.63Z" style="fill:rgb(250,190,41);"/>
                <path d="M726.922,407.611C727.501,405.908 733.797,387.388 737.489,387.772C751.969,389.278 751.851,389.555 766.508,388.801C770.771,388.581 776.408,404.25 778.063,417.553C783.288,459.557 753.112,499.031 746.737,492.261C716.438,460.091 725.56,414.431 726.922,407.611Z" style="fill:rgb(251,190,41);"/>
                <path d="M738.561,195.782C722.466,199.841 722.239,198.739 721.75,198.236C691.578,167.141 704.248,105.774 718.72,92.821C723.34,88.686 771.441,132.384 756.203,187.423C753.37,197.657 750.067,194.486 739.519,195.62C745.038,186.051 736.211,151.424 734.577,150.41C729.545,147.288 732.413,158.756 732.593,159.477C738.852,184.504 734.366,190.55 738.561,195.782Z" style="fill:rgb(251,192,42);"/>
                <path d="M812.197,371.166C820.7,364.119 820.779,359.47 830.357,364.768C879.097,391.726 876.625,458.84 868.5,458.374C836.713,456.552 794.639,406.985 797.277,381.484C797.433,379.978 802.862,377.015 808.589,373.647C810.171,376.534 827.268,407.732 831.506,407.816C836.771,407.921 826.265,396.71 812.197,371.166Z" style="fill:rgb(251,193,42);"/>
                <path d="M812.471,142.469C827.548,130.731 826.658,129.301 844.64,122.88C846.112,122.355 858.701,117.063 859.677,122.455C868.625,171.867 824.609,220.468 813.725,213.178C800.954,204.626 800.888,205.07 786.774,199.065C784.037,197.901 798.158,185.06 803.052,163.399C805.652,151.892 804.187,151.015 812.471,142.469Z" style="fill:rgb(250,191,41);"/>
                <path d="M902.435,363.552C930.671,405.131 919.331,409.827 915.474,410.105C896.164,411.498 869.291,402.622 866.832,398.304C842.13,354.93 828.638,366.022 827.585,358.477C827.233,355.958 830.231,357.328 844.88,331.792C845.94,329.943 858.651,332.446 870.304,337.906C886.494,345.491 900.259,361.086 902.435,363.552Z" style="fill:rgb(250,191,40);"/>
                <path d="M663.434,340.162C672.718,339.419 671.57,342.554 676.927,350.197C678.659,352.668 686.205,360.32 685.113,361.204C663.215,378.917 663.282,379.314 650.359,404.424C646.576,411.774 602.848,420.608 595.848,416.008C593.854,414.697 597.628,357.128 663.434,340.162Z" style="fill:rgb(250,190,41);"/>
                <path d="M909.514,352.778C898.77,352.835 898.488,352.751 890.201,345.861C869.143,328.351 846.577,328.463 847.384,325.485C851.179,311.49 851.625,311.783 853.431,297.493C854.558,288.578 916.941,290.229 946.124,335.73C951.805,344.587 940.115,349.682 909.514,352.778Z" style="fill:rgb(250,191,40);"/>
                <path d="M610.384,313.24C612.721,312.427 630.119,306.374 640.489,306.114C659.272,305.643 658.611,308.399 658.626,308.459C665.003,332.957 667.692,332.376 667.164,334.504C665.123,342.724 652.614,326.184 613.196,365.17C610.209,368.124 578.075,366.02 566.716,359.141C561.077,355.726 575.224,330.495 610.384,313.24Z" style="fill:rgb(250,190,41);"/>
                <path d="M910.417,253.939C914.38,254.916 950.411,263.8 956.106,276.652C959.254,283.756 919.525,303.939 915.595,302.153C890.084,290.557 883.877,287.934 855.507,290.804C853.368,291.02 854.138,289.738 850.075,264.482C849.808,262.819 859.622,257.09 875.569,253.859C887.759,251.389 907.647,253.627 910.417,253.939Z" style="fill:rgb(250,190,40);"/>
                <path d="M668.71,245.644C653.994,239.868 654.23,239.717 640.335,231.885C637.997,230.567 634.252,233.474 639.822,237.023C641.826,238.301 651.483,244.455 666.747,249.59C662.76,259.101 663.719,262.448 653.481,261.728C600.428,257.998 567.067,196.601 577.354,193.186C592.12,188.284 621.448,193.181 623.315,195.669C641.978,220.543 644.799,223.743 673.294,234.96C675.04,235.648 674.138,237.124 668.71,245.644Z" style="fill:rgb(250,192,42);"/>
                <path d="M592.598,248.923C603.669,246.899 604.153,246.068 613.711,252.171C637.964,267.656 660.772,264.462 660.274,267.491C657.895,281.957 657.867,281.727 657.24,296.483C656.921,303.991 596.45,310.276 562.979,268.14C554.663,257.672 587.69,250.342 592.598,248.923Z" style="fill:rgb(250,189,39);"/>
                <path d="M873.577,153.782C875.614,153.289 892.131,149.294 899.475,149.772C908.44,150.356 898.544,212.638 844.39,231.164C830.303,235.983 831.327,229.57 820.883,219.152C818.15,216.426 849.621,203.272 860.061,165.378C862.636,156.031 864.302,156.844 873.577,153.782Z" style="fill:rgb(250,191,42);"/>
                <path d="M763.499,194.632C752.767,193.178 763.853,187.384 763.045,160.529C762.41,139.435 751.96,130.857 756.871,122.726C766.642,106.552 783.764,88.44 788.245,94.699C816.469,134.112 790.702,198.794 779.553,197.033C778.502,196.867 778.581,196.871 766.44,194.847C771.467,186.658 776.677,149.767 769.728,160.662C769.538,160.959 763.47,189.921 763.499,194.632Z" style="fill:rgb(250,192,42);"/>
                <path d="M865.421,225.381C877.519,215.861 877.334,215.932 887.638,204.652C889.4,202.723 910.862,203.659 927.391,209.789C941.146,214.89 934.849,220.243 925.093,231.132C904.265,254.381 897.537,248.549 897.498,248.547C864.079,247.042 849.369,262.119 847.439,257.53C839.137,237.778 836.912,237.369 838.62,236.794C852.543,232.108 852.558,232.464 865.421,225.381Z" style="fill:rgb(250,191,41);"/>
                <path d="M786.392,384.263C788.108,383.71 789.766,382.984 791.482,382.431C800.807,379.426 782.803,398.788 823.223,438.777C827.335,442.846 820.911,470.675 815.076,481.216C810.159,490.096 778.7,457.018 779.799,450.549C784.997,419.945 784.102,416.032 773.342,389.543C771.871,385.921 774.875,387.524 781.555,385.74C782.262,388.304 789.442,414.337 791.587,417.437C801.489,431.754 787.206,386.823 786.392,384.263Z" style="fill:rgb(250,193,42);"/>
                <path d="M713.539,203.599C712.257,200.413 693.823,154.588 690.36,167.465C689.918,169.108 709.006,204.975 709.595,205.659C709.201,205.839 704.718,207.883 704.272,206.641C691.589,171.301 682.278,167.583 658.529,151.469C656.1,149.821 655.727,123.037 659.527,110.508C660.461,107.427 665.369,98.535 696.441,126.563C704.236,133.594 691.455,152.439 708.858,186.309C714.02,196.355 723.561,198.421 713.539,203.599Z" style="fill:rgb(250,193,44);"/>
                <path d="M687.369,451.341C718.756,423.393 719.346,404.281 721.908,384.689C722.001,383.982 722.446,383.44 730.682,386.245C733.475,387.197 715.129,409.628 720.894,445.439C721.79,451.003 728.249,454.21 710.485,470.484C698,481.921 692.078,490.1 685.927,474.339C677.213,452.014 687.127,451.538 687.369,451.341Z" style="fill:rgb(249,190,42);"/>
                <path d="M606.604,310.719C594.722,317.12 595.096,317.34 584.242,325.158C580.148,328.107 548.872,313.245 554.845,305.794C559.249,300.3 577.324,287.748 580.508,289.482C590.338,294.837 599.074,301.47 619.569,304.37C622.86,304.836 618.863,305.63 606.604,310.719Z" style="fill:rgb(249,191,41);"/>
                <path d="M727.255,309.369C724.819,313.498 724.93,318.42 716.656,313.268C707.513,307.575 701.601,308.192 706.773,298.664C707.346,297.608 713.913,285.511 715.516,286.461C715.852,286.66 729.854,295.47 731.447,296.575C735.321,299.261 732.038,300.057 727.255,309.369Z" style="fill:rgb(105,59,30);"/>
                <path d="M728.433,320.614C727.012,319.443 726.375,319.766 726.738,318.512C727.342,316.425 732.243,307.58 732.758,306.649C739.524,294.436 742.857,302.659 754.189,310.83C755.965,312.111 746.569,328.354 745.462,329.442C744.354,330.533 729.805,321.42 728.433,320.614Z" style="fill:rgb(104,58,29);"/>
                <path d="M741.427,273.633C750.918,281.407 742.366,282.678 736.149,293.269C734.694,295.749 716.162,283.232 716.834,281.547C717.956,278.731 725.287,266.258 725.767,265.751C726.758,264.704 740.229,272.904 741.427,273.633Z" style="fill:rgb(104,58,29);"/>
                <path d="M720.235,322.388C720.124,322.602 713.332,338.267 710.652,337.077C709.084,336.38 691.383,328.522 693.321,324.433C693.949,323.108 701.159,307.9 703.62,309.258C720.819,318.749 720.504,320.715 720.235,322.388Z" style="fill:rgb(104,58,29);"/>
                <path d="M745.184,284.319C748.434,279.34 748.12,278.524 749.574,279.036C750.868,279.491 750.826,279.552 764.23,287.934C766.866,289.583 765.754,294.351 757.852,306.832C756.778,308.528 747.914,302.742 739.71,297.284C738.521,296.494 744.643,285.307 745.184,284.319Z" style="fill:rgb(104,59,29);"/>
                <path d="M733.428,264.61C729.147,261.495 728.602,261.74 728.844,260.551C729.024,259.669 735.084,249.462 737.677,245.65C738.606,244.283 739.603,243.924 756.12,254.962C757.887,256.143 749.454,269.885 747.88,271.908C747.078,272.939 734.534,265.285 733.428,264.61Z" style="fill:rgb(102,56,28);"/>
                <path d="M688.352,294.72C684.32,291.528 684.21,291.663 683.998,291.273C683.213,289.832 692.994,273.98 693.486,273.481C694.29,272.668 708.281,281.681 709.517,282.477C711.086,283.487 708.587,288.826 701.265,301.297C699.512,304.281 698.903,301.575 688.352,294.72Z" style="fill:rgb(104,59,30);"/>
                <path d="M781.348,315.416C780.532,316.65 780.022,318.069 779.206,319.304C777.964,321.183 759.206,312.515 761.706,307.612C763.485,304.122 769.553,291.52 771.477,292.574C775.323,294.682 786.142,301.314 786.937,302.135C788.613,303.865 787.126,304.17 781.348,315.416Z" style="fill:rgb(104,58,29);"/>
                <path d="M752.443,271.467C759.282,259.719 759.171,259.752 759.829,258.779C761.092,256.912 776.091,266.756 777.296,267.698C778.865,268.924 770.069,283.985 769.288,285.323C768.532,286.619 757.671,279.678 756.725,279.074C752.316,276.256 750.245,276.375 752.443,271.467Z" style="fill:rgb(105,59,29);"/>
                <path d="M749.893,329.698C757.31,315.896 757.212,315.956 757.903,314.792C758.143,314.387 758.837,313.363 775.137,322.962C777.253,324.208 767.816,341.971 765.583,341.217C748.954,335.602 749.648,331.236 749.893,329.698Z" style="fill:rgb(108,60,30);"/>
                <path d="M793.584,292.543C790.858,297.453 790.688,299.958 785.78,297.017C784.664,296.349 772.361,288.978 772.595,287.519C772.667,287.07 780.445,270.745 782.556,271.123C783.659,271.321 795.177,278.258 796.257,278.909C802.859,282.885 797.492,284.353 793.584,292.543Z" style="fill:rgb(104,58,29);"/>
                <path d="M740.324,331.799C742.827,333.606 743.315,334.575 736.049,347.245C732.632,353.204 715.379,339.907 715.966,338.599C716.91,336.491 723.191,321.688 726.443,323.611C727.553,324.267 727.472,324.217 740.324,331.799Z" style="fill:rgb(104,58,29);"/>
                <path d="M672.561,310.534C673.238,309.237 680.944,294.492 682.603,295.248C695.723,301.233 700.667,302.599 694.028,315.254C691.012,321.004 692.162,325.573 686.749,322.096C679.411,317.382 679.719,317.196 672.544,312.452C671.54,311.788 671.994,311.659 672.561,310.534Z" style="fill:rgb(104,59,30);"/>
                <path d="M742.577,242.369C742.075,241.711 739.512,240.646 749.868,225.824C750.79,224.505 751.75,224.275 767.489,235.511C768.721,236.39 761.041,249.282 760.364,250.418C758.402,253.712 745.815,244.372 742.577,242.369Z" style="fill:rgb(102,57,29);"/>
                <path d="M717.389,258.671C718.902,259.814 720.589,260.715 722.102,261.858C723.52,262.928 714.047,280.906 711.531,279.434C704.004,275.031 695.338,270.172 696.748,267.626C698.801,263.921 704.548,254.829 705.548,253.54C706.94,251.748 707.246,253.137 717.389,258.671Z" style="fill:rgb(104,58,29);"/>
                <path d="M812.585,288.346C822.551,294.389 816.514,297.077 811.12,307.314C810.477,308.534 807.697,313.811 794.615,302.35C792.187,300.223 801.804,282.489 804.354,283.817C807.131,285.265 809.808,286.899 812.585,288.346Z" style="fill:rgb(105,59,29);"/>
                <path d="M787.845,251.697C787.243,252.779 780.355,265.144 778.677,264.164C777.378,263.405 761.671,255.504 763.405,252.45C764.064,251.29 771.569,238.075 773.607,239.251C777.567,241.539 790.016,246.937 787.845,251.697Z" style="fill:rgb(106,59,29);"/>
                <path d="M732.747,246.654C727.503,255.114 728.347,261.412 719.766,256.113C715.274,253.34 708.099,249.711 709.382,247.443C718.116,231.996 719.174,231.983 720.445,232.728C721.172,233.154 733.997,241.207 734.357,241.61C735.419,242.801 734.575,242.914 732.747,246.654Z" style="fill:rgb(103,58,29);"/>
                <path d="M759.457,355.477C752.958,365.876 750.435,358.701 739.649,353.206C735.966,351.33 745.527,335.168 748.499,336.503C750.085,337.216 763.684,344.432 764.154,344.823C764.989,345.518 764.356,345.689 759.457,355.477Z" style="fill:rgb(105,58,29);"/>
                <path d="M787.422,269.621C784.782,267.83 782.968,268.24 784.384,265.447C786.72,260.84 791.895,251.953 792.521,251.532C793.336,250.984 806.121,258.293 807.267,258.949C811.62,261.437 802.311,275.329 801.57,276.565C800.948,277.603 788.508,270.262 787.422,269.621Z" style="fill:rgb(100,56,29);"/>
                <path d="M792.491,328.517C782.703,322.722 781.675,323.095 782.34,321.46C782.596,320.83 788.629,309.534 790.842,305.772C791.797,304.149 807.62,312.558 806.659,315.565C802.908,327.299 803.553,333.776 792.491,328.517Z" style="fill:rgb(102,57,28);"/>
                <path d="M784.665,328.214C794.446,333.825 797.244,332.983 795.527,336.51C788.138,351.69 786.75,351.092 785.481,350.546C784.25,350.016 770.182,343.961 770.754,342.555C771.16,341.558 778.351,328.259 779.18,327.231C780.708,325.333 784.288,328.049 784.665,328.214Z" style="fill:rgb(104,58,30);"/>
                <path d="M806.807,274.656C812.201,264.578 811.256,262.564 814.537,263.383C814.842,263.459 827.519,270.126 828.389,270.632C830.834,272.052 822.048,286.107 821.278,287.338C820.34,288.839 812.453,284.398 811.749,284.001C807.863,281.813 803.733,282.66 806.807,274.656Z" style="fill:rgb(104,58,29);"/>
                <path d="M722.967,226.786C723.719,225.714 732.233,213.563 732.462,213.448C733.77,212.792 740.537,217.496 741.181,217.944C751.021,224.785 744.826,227.139 738.283,237.353C736.874,239.554 722.088,232.383 722.967,226.786Z" style="fill:rgb(107,61,30);"/>
                <path d="M713.539,203.599L709.595,205.659C709.006,204.975 689.918,169.108 690.36,167.465C693.823,154.588 712.257,200.413 713.539,203.599Z" style="fill:rgb(242,146,16);"/>
                <path d="M738.561,195.782C734.366,190.55 738.852,184.504 732.593,159.477C732.413,158.756 729.545,147.288 734.577,150.41C736.211,151.424 745.038,186.051 739.519,195.62L738.561,195.782Z" style="fill:rgb(243,151,13);"/>
                <path d="M812.197,371.166C826.265,396.71 836.771,407.921 831.506,407.816C827.268,407.732 810.171,376.534 808.589,373.647L812.197,371.166Z" style="fill:rgb(243,155,16);"/>
                <path d="M786.392,384.263C787.206,386.823 801.489,431.754 791.587,417.437C789.442,414.337 782.262,388.304 781.555,385.74L786.392,384.263Z" style="fill:rgb(242,153,13);"/>
                <path d="M763.499,194.632C763.47,189.921 769.538,160.959 769.728,160.662C776.677,149.767 771.467,186.658 766.44,194.847L763.499,194.632Z" style="fill:rgb(244,151,17);"/>
                <path d="M668.71,245.644L666.747,249.59C651.483,244.455 641.826,238.301 639.822,237.023C634.252,233.474 637.997,230.567 640.335,231.885C654.23,239.717 653.994,239.868 668.71,245.644Z" style="fill:rgb(241,153,15);"/>
            </g>
        </g>
    </g>
</svg>
