<?xml version="1.0" encoding="UTF-8" standalone="no"?>
<!DOCTYPE svg PUBLIC "-//W3C//DTD SVG 1.1//EN" "http://www.w3.org/Graphics/SVG/1.1/DTD/svg11.dtd">
<svg width="100%" height="100%" viewBox="0 0 1408 2209" version="1.1" xmlns="http://www.w3.org/2000/svg" xmlns:xlink="http://www.w3.org/1999/xlink" xml:space="preserve" xmlns:serif="http://www.serif.com/" style="fill-rule:evenodd;clip-rule:evenodd;stroke-linejoin:round;stroke-miterlimit:2;">
    <g id="Prancheta1" transform="matrix(1,0,0,1,-946.059002,-170.975954)">
        <rect x="946.059" y="170.976" width="1407.882" height="2208.048" style="fill:none;"/>
        <clipPath id="_clip1">
            <rect x="946.059" y="170.976" width="1407.882" height="2208.048"/>
        </clipPath>
        <g clip-path="url(#_clip1)">
            <g transform="matrix(4.166667,0,0,4.166667,52.202574,-276.890232)">
                <path d="M335.5,411.119C330.285,410.953 271.98,409.092 270.863,402.415C270.73,401.618 304.522,324.015 344.644,307.835C386.557,290.932 412.259,325.466 415.824,330.255C416.921,331.729 432.31,332.596 431.271,329.558C415.04,282.095 386.149,229.425 380.134,224.988C365.877,214.468 360.199,215.505 359.874,216.638C359.56,217.73 356.632,246.64 328.402,258.244C287.114,275.216 214.347,234.016 214.54,230.503C214.559,230.166 246.134,184.041 279.435,169.354C291.812,163.895 349.547,146.553 359.95,209.42C360.264,211.316 378.001,218.252 376.332,215.542C356.697,183.646 320.055,138.927 320.237,130.493C320.563,115.407 341.912,96.744 355.035,115.812C397.081,176.902 419.678,222.292 421.476,219.478C428.63,208.287 409.592,199.081 414.265,168.461C425.054,97.762 553.274,107.371 552.427,116.502C551.978,121.342 547.074,119.654 531.018,173.364C527.154,186.292 516.813,226.46 476.424,234.088C448.429,239.375 431.921,219.089 430.635,223.559C424.669,244.3 436.87,242.449 466.434,317.525C486.598,368.73 495.772,417.622 497.444,426.533C498.779,433.65 514.409,381.222 533.068,403.873C546.663,420.377 535.139,422.412 509.399,480.453C503.969,492.697 515.857,512.484 518.165,617.502C518.658,639.928 462.503,646.012 462.511,623.5C462.535,555.778 464.543,467.075 441.817,366.428C440.897,362.354 439.6,342.396 424.509,341.409C414.268,340.74 427.594,353.497 413.047,378.217C403.858,393.834 385.275,401.94 382.374,403.205C366.853,409.975 339.3,410.98 335.5,411.119Z" style="fill:rgb(10,10,7);"/>
                <path d="M339.49,112.436C440.453,261.81 463.351,360.958 468.772,384.433C479.29,429.976 480.607,462.902 497.561,436.639C506.546,424.229 519.522,386.361 532.396,410.55C540.532,425.836 500.989,471.331 503.758,490.467C511.369,543.07 516.265,614.913 512.575,613.322C509.5,611.997 489.675,603.448 470.802,615.953C462.288,621.594 467.048,612.487 466.968,599.5C465.473,355.11 433.717,284.194 327.864,139.242C320.009,128.487 325.991,117.061 339.49,112.436Z" style="fill:rgb(125,163,60);"/>
                <path d="M418.082,185.559C417.147,170.192 416.081,143.152 456.686,124.897C489.499,110.145 549.955,113.266 546.546,119.523C534.384,141.85 534.845,147.002 525.631,177.539C507.726,236.879 461.721,240.949 433.854,218.07C428.009,213.272 438.76,202.896 438.861,202.763C444.873,194.848 444.721,191.865 454.469,194.603C471.146,199.287 488.004,198.013 487.551,194.491C487.274,192.332 446.643,193.97 451.878,187.763C471.235,164.809 507.949,143.329 513.315,140.19C516.605,138.265 514.548,135.239 512.397,136.16C489.463,145.979 454.698,179.752 450.19,184.131C448.238,186.027 443.637,182.493 455.712,150.568C456.44,148.643 454.311,144.939 451.809,149.656C443.32,165.662 444.671,189.379 444.094,190.21C437.173,200.162 436.5,199.445 429.212,209.286C427.964,210.971 423.295,211.621 418.082,185.559Z" style="fill:rgb(136,175,67);"/>
                <path d="M353.379,309.026C358.332,308.159 394.754,301.785 412.003,331.69C412.767,333.015 411.873,333.354 394.357,339.057C389.698,340.574 382.641,330.991 355.489,329.304C352.574,329.123 352.533,332.687 354.636,333.012C386.788,337.975 388.77,341.214 386.381,342.353C380.06,345.366 314.875,376.436 308.71,382.695C293.038,398.604 340.279,365.78 387.622,345.898C389.998,344.9 393.245,348.373 377.347,376.419C370.599,388.322 386.98,375.526 392.008,353.38C395.23,339.19 398.226,340.271 412.455,337.229C417.539,336.142 417.933,355.857 414.302,366.429C393.834,426.035 287.102,402.718 280.472,401.68C273.678,400.615 276.776,397.692 279.987,391.743C317.022,323.143 333.037,316.538 353.379,309.026Z" style="fill:rgb(135,174,68);"/>
                <path d="M292.604,168.899C296.077,168.287 320.395,164.003 336.288,174.809C354.728,187.346 355.981,207.939 355.952,208.574C355.845,210.947 334.954,207.641 333.816,206.236C332.209,204.252 317.734,186.381 309.493,185.57C299.86,184.623 320.112,194.956 328.452,205.527C331.6,209.517 326.851,207.351 318.517,207.735C285.203,209.27 256.168,219.899 254.871,220.901C239.194,233.014 273.361,212.413 327.523,211.404C333.861,211.286 307.983,234.08 307.944,235.519C307.693,244.728 331.947,214.809 333.681,212.671C335.61,210.291 352.234,213.445 354.69,214.132C356.895,214.75 353.084,268.137 286.457,256.732C262.391,252.612 217.668,232.352 220.605,228.572C263.876,172.907 288.262,170.353 292.604,168.899Z" style="fill:rgb(135,174,69);"/>
                <path d="M339.49,112.436C350.114,112.243 349.841,115.017 368.978,144.179C499.641,343.294 486.634,433.199 497.561,436.639C480.607,462.902 479.29,429.976 468.772,384.433C463.351,360.958 440.453,261.81 339.49,112.436Z" style="fill:rgb(104,136,45);"/>
                <path d="M478.413,632.916C477.432,632.61 467.991,629.67 467.231,626.589C464.109,613.923 518.772,607.457 512.904,621.679C507.326,635.197 481.306,633.144 478.413,632.916Z" style="fill:rgb(96,127,43);"/>
                <path d="M433.514,340.034C427.145,337.94 427.292,337.621 420.496,337.633C406.46,337.658 437.875,330.604 433.514,340.034Z" style="fill:rgb(119,151,78);"/>
                <path d="M423.373,225.455C430.966,208.899 425.499,229.057 425.37,229.385C425.242,229.714 422.98,230.879 423.373,225.455Z" style="fill:rgb(121,159,71);"/>
            </g>
        </g>
    </g>
</svg>
