<?xml version="1.0" encoding="UTF-8" standalone="no"?>
<!DOCTYPE svg PUBLIC "-//W3C//DTD SVG 1.1//EN" "http://www.w3.org/Graphics/SVG/1.1/DTD/svg11.dtd">
<svg width="100%" height="100%" viewBox="0 0 1491 1424" version="1.1" xmlns="http://www.w3.org/2000/svg" xmlns:xlink="http://www.w3.org/1999/xlink" xml:space="preserve" xmlns:serif="http://www.serif.com/" style="fill-rule:evenodd;clip-rule:evenodd;stroke-linejoin:round;stroke-miterlimit:2;">
    <g id="Prancheta1" transform="matrix(1,0,0,1,-904.990481,-563.260458)">
        <rect x="904.99" y="563.26" width="1490.019" height="1423.479" style="fill:none;"/>
        <clipPath id="_clip1">
            <rect x="904.99" y="563.26" width="1490.019" height="1423.479"/>
        </clipPath>
        <g clip-path="url(#_clip1)">
            <g transform="matrix(4.166667,0,0,4.166667,669.446823,-2064.081779)">
                <path d="M323.57,637.049C385.775,647.838 417.782,661.839 414.085,689.452C404.085,764.131 404.119,764.391 402.15,766.115C394.824,772.532 383.58,776.139 383.081,778.361C370.066,836.224 353.255,938.117 346.096,946.129C311.773,984.544 128.279,980.291 119.882,935.433C117.498,922.697 90.535,778.658 87.272,776.794C80.893,773.149 67.479,768.677 66.311,759.526C56.431,682.108 55.502,681.966 57.839,675.638C68.604,646.484 185.344,617.381 323.57,637.049Z" style="fill:rgb(10,6,4);"/>
                <path d="M114.899,889.413C93.208,781.903 91.682,778.846 94.461,779.738C101.837,782.106 141.605,794.872 189.526,798.175C321.004,807.239 378.134,776.46 378.225,780.534C378.255,781.875 347.306,933.61 346.297,937.439C338.516,966.956 213.212,980.892 146.59,954.271C120.991,944.042 124.16,935.168 114.899,889.413Z" style="fill:rgb(139,72,32);"/>
                <path d="M299.456,637.958C308.963,639.225 438.298,656.461 406.309,692.323C356.662,747.983 46.859,734.941 61.165,678.41C66.297,658.13 150.454,624.39 299.456,637.958Z" style="fill:rgb(179,109,64);"/>
                <path d="M64.226,708.529C62.648,698.317 62.66,698.382 62.522,697.5C61.803,692.887 64.344,696.966 67.865,700C93.821,722.362 183.223,735.653 262.491,732.238C379.901,727.18 406.034,698.245 407.462,697.388C410.124,695.791 400.663,761.818 399.261,763.264C363.768,799.874 138.241,810.889 74.798,765.089C69.936,761.579 70.784,760.554 64.226,708.529Z" style="fill:rgb(145,76,34);"/>
                <path d="M111.622,705.086C109.585,704.327 91.539,697.6 86.73,694.174C22.067,648.113 268.052,618.481 369.483,657.54C466.323,694.832 271.766,746.839 111.622,705.086Z" style="fill:rgb(13,7,4);"/>
                <path d="M328.44,650.848C333.575,651.997 382.854,663.025 389.391,675.558C395.254,686.799 376.759,695.286 375.275,693.852C354.454,673.729 340.343,688.629 292.431,671.705C273.608,665.056 259.311,673.581 246.467,671.717C219.942,667.869 219.946,670.382 194.432,678.269C168.163,686.389 139.085,669.74 99.567,694.613C95.748,697.017 55.209,677.163 110.447,659.336C198.402,630.95 311.188,648.208 328.44,650.848Z" style="fill:rgb(144,76,35);"/>
                <path d="M147.569,709.068C144.026,708.348 115.208,702.489 103.686,698.248C103.023,698.004 102.275,696.417 110.617,692.764C140.865,679.517 168.726,684.625 174.5,684.779C204.473,685.576 206.828,669.746 237.534,674.273C267.384,678.674 268.198,667.528 290.566,675.307C332.445,689.869 346.531,681.387 364.545,690.411C370.709,693.499 374.092,696.243 368.402,698.208C283.335,727.578 165.095,711.458 147.569,709.068Z" style="fill:rgb(103,57,28);"/>
                <path d="M114.741,809.226C136.788,836.344 143.619,925.293 126.65,906.337C118.246,896.949 109.309,836.009 108.871,832.442C108.675,830.847 103.475,804.344 114.741,809.226Z" style="fill:rgb(182,115,69);"/>
                <path d="M81.46,716.536C83.282,719.49 94.715,738.019 95.752,757.489C96.477,771.081 80.208,768.983 75.508,750.498C72.203,737.498 71.258,723.998 72.496,719.499C74.428,712.475 80.806,716.159 81.46,716.536Z" style="fill:rgb(181,114,68);"/>
                <path d="M282.483,689.231C291.293,690.554 292.783,689.466 296.266,697.575C297.325,700.043 294.707,702.177 292.887,699.281C282.017,681.975 269.702,705.779 268.283,700.583C266.273,693.224 281.071,689.579 282.483,689.231Z" style="fill:rgb(14,8,4);"/>
                <path d="M156.541,693.669C157.722,693.692 167.981,693.894 170.015,699.718C172.987,708.229 163.811,698.108 161.525,697.423C154.746,695.393 150.652,702.629 150.6,702.653C149.511,703.166 143.66,698.075 156.541,693.669Z" style="fill:rgb(14,8,4);"/>
                <path d="M218.617,699.216C212.815,698.12 213.829,701.693 210.496,702.149C203.509,703.107 215.407,689.465 223.301,697.68C223.6,697.992 225.281,704.034 218.617,699.216Z" style="fill:rgb(10,7,6);"/>
            </g>
        </g>
    </g>
</svg>
